<?xml version="1.0" encoding="UTF-8"?>
<svg xmlns="http://www.w3.org/2000/svg" xmlns:xlink="http://www.w3.org/1999/xlink" width="24px" height="24px" viewBox="0 0 24 24" version="1.1">
<g id="surface1">
<path style=" stroke:none;fill-rule:nonzero;fill:rgb(3.921569%,3.921569%,3.137255%);fill-opacity:1;" d="M 12 2.164062 C 15.203125 2.164062 15.582031 2.175781 16.847656 2.230469 C 18.019531 2.285156 18.65625 2.480469 19.078125 2.644531 C 19.636719 2.863281 20.039062 3.125 20.457031 3.542969 C 20.875 3.960938 21.136719 4.363281 21.355469 4.921875 C 21.519531 5.34375 21.714844 5.980469 21.769531 7.152344 C 21.824219 8.417969 21.835938 8.796875 21.835938 12 C 21.835938 15.203125 21.824219 15.582031 21.769531 16.847656 C 21.714844 18.019531 21.519531 18.65625 21.355469 19.078125 C 21.136719 19.636719 20.875 20.039062 20.457031 20.457031 C 20.039062 20.878906 19.636719 21.136719 19.078125 21.355469 C 18.65625 21.519531 18.019531 21.714844 16.847656 21.769531 C 15.582031 21.824219 15.203125 21.835938 12 21.835938 C 8.796875 21.835938 8.417969 21.824219 7.152344 21.769531 C 5.980469 21.714844 5.34375 21.519531 4.921875 21.355469 C 4.363281 21.136719 3.960938 20.878906 3.542969 20.457031 C 3.121094 20.039062 2.863281 19.636719 2.644531 19.078125 C 2.480469 18.65625 2.285156 18.019531 2.230469 16.847656 C 2.175781 15.582031 2.164062 15.203125 2.164062 12 C 2.164062 8.796875 2.175781 8.417969 2.230469 7.152344 C 2.285156 5.980469 2.480469 5.34375 2.644531 4.921875 C 2.863281 4.363281 3.121094 3.960938 3.542969 3.542969 C 3.960938 3.125 4.363281 2.863281 4.921875 2.644531 C 5.34375 2.480469 5.980469 2.285156 7.152344 2.230469 C 8.417969 2.175781 8.796875 2.164062 12 2.164062 M 12 0 C 8.742188 0 8.332031 0.015625 7.050781 0.0703125 C 5.773438 0.128906 4.902344 0.332031 4.140625 0.628906 C 3.351562 0.9375 2.679688 1.347656 2.015625 2.015625 C 1.347656 2.679688 0.9375 3.351562 0.628906 4.140625 C 0.332031 4.902344 0.128906 5.773438 0.0703125 7.050781 C 0.015625 8.332031 0 8.742188 0 12 C 0 15.257812 0.015625 15.667969 0.0703125 16.949219 C 0.128906 18.226562 0.332031 19.097656 0.628906 19.859375 C 0.9375 20.648438 1.347656 21.320312 2.015625 21.984375 C 2.679688 22.652344 3.351562 23.0625 4.140625 23.371094 C 4.902344 23.667969 5.773438 23.871094 7.050781 23.929688 C 8.332031 23.984375 8.742188 24 12 24 C 15.257812 24 15.667969 23.984375 16.949219 23.929688 C 18.226562 23.871094 19.097656 23.667969 19.859375 23.371094 C 20.648438 23.0625 21.320312 22.652344 21.984375 21.984375 C 22.652344 21.320312 23.0625 20.648438 23.371094 19.859375 C 23.667969 19.097656 23.871094 18.226562 23.929688 16.949219 C 23.984375 15.667969 24 15.257812 24 12 C 24 8.742188 23.984375 8.332031 23.929688 7.050781 C 23.871094 5.773438 23.667969 4.902344 23.371094 4.140625 C 23.0625 3.351562 22.652344 2.679688 21.984375 2.015625 C 21.320312 1.347656 20.648438 0.9375 19.859375 0.628906 C 19.097656 0.332031 18.226562 0.128906 16.949219 0.0703125 C 15.667969 0.015625 15.257812 0 12 0 Z M 12 5.835938 C 8.597656 5.835938 5.835938 8.597656 5.835938 12 C 5.835938 15.402344 8.597656 18.164062 12 18.164062 C 15.402344 18.164062 18.164062 15.402344 18.164062 12 C 18.164062 8.597656 15.402344 5.835938 12 5.835938 Z M 12 16 C 9.789062 16 8 14.210938 8 12 C 8 9.789062 9.789062 8 12 8 C 14.210938 8 16 9.789062 16 12 C 16 14.210938 14.210938 16 12 16 Z M 19.84375 5.59375 C 19.84375 6.390625 19.199219 7.035156 18.40625 7.035156 C 17.609375 7.035156 16.964844 6.390625 16.964844 5.59375 C 16.964844 4.800781 17.609375 4.15625 18.40625 4.15625 C 19.199219 4.15625 19.84375 4.800781 19.84375 5.59375 Z M 19.84375 5.59375 "/>
</g>
</svg>
